<?xml version="1.0" encoding="UTF-8" standalone="no"?>
<svg
   width="200pt"
   height="200pt"
   viewBox="0 0 200 200"
   version="1.1"
   id="svg1"
   sodipodi:docname="avatar.svg"
   inkscape:version="1.4.3 (0d15f75042, 2025-12-25)"
   xml:space="preserve"
   xmlns:inkscape="http://www.inkscape.org/namespaces/inkscape"
   xmlns:sodipodi="http://sodipodi.sourceforge.net/DTD/sodipodi-0.dtd"
   xmlns:xlink="http://www.w3.org/1999/xlink"
   xmlns="http://www.w3.org/2000/svg"
   xmlns:svg="http://www.w3.org/2000/svg"><sodipodi:namedview
     id="namedview1"
     pagecolor="#ffffff"
     bordercolor="#000000"
     borderopacity="0.25"
     inkscape:showpageshadow="2"
     inkscape:pageopacity="0.0"
     inkscape:pagecheckerboard="0"
     inkscape:deskcolor="#d1d1d1"
     inkscape:document-units="pt"
     inkscape:zoom="1.8008566"
     inkscape:cx="159.3686"
     inkscape:cy="156.03685"
     inkscape:window-width="1920"
     inkscape:window-height="1011"
     inkscape:window-x="0"
     inkscape:window-y="0"
     inkscape:window-maximized="1"
     inkscape:current-layer="svg1" /><defs
     id="defs1"><linearGradient
       id="linearGradient8"
       inkscape:collect="always"><stop
         style="stop-color:#50abf9;stop-opacity:1;"
         offset="0.45956022"
         id="stop9" /><stop
         style="stop-color:#d9edfd;stop-opacity:0;"
         offset="1"
         id="stop10" /></linearGradient><linearGradient
       id="swatch4"
       inkscape:swatch="solid"><stop
         style="stop-color:#d9edfd;stop-opacity:1;"
         offset="0"
         id="stop4" /></linearGradient><inkscape:path-effect
       effect="fillet_chamfer"
       id="path-effect9"
       is_visible="true"
       lpeversion="1"
       nodesatellites_param="F,0,0,1,0,0.86275931,0,1 @ F,0,0,1,0,1.2689559,0,1 @ F,0,0,1,0,0.90981663,0,1 @ F,0,0,1,0,1.1092381,0,1 | F,0,0,1,0,0.28136459,0,1 @ F,0,0,1,0,0.70175251,0,1 @ F,0,0,1,0,0.55221514,0,1 @ F,0,0,1,0,0.52478145,0,1"
       radius="0"
       unit="px"
       method="auto"
       mode="F"
       chamfer_steps="1"
       flexible="false"
       use_knot_distance="true"
       apply_no_radius="true"
       apply_with_radius="true"
       only_selected="false"
       hide_knots="false" /><inkscape:path-effect
       effect="fillet_chamfer"
       id="path-effect8"
       is_visible="true"
       lpeversion="1"
       nodesatellites_param="F,0,0,1,0,0,0,1 @ F,0,0,1,0,0,0,1 @ F,0,0,1,0,0,0,1 @ F,0,0,1,0,0,0,1 | F,0,0,1,0,0,0,1 @ F,0,0,1,0,0,0,1 @ F,0,0,1,0,0,0,1 @ F,0,0,1,0,0,0,1"
       radius="0"
       unit="px"
       method="auto"
       mode="F"
       chamfer_steps="1"
       flexible="false"
       use_knot_distance="true"
       apply_no_radius="true"
       apply_with_radius="true"
       only_selected="false"
       hide_knots="false" /><inkscape:path-effect
       effect="pts2ellipse"
       id="path-effect7"
       is_visible="true"
       lpeversion="1"
       method="auto"
       gen_arc="true"
       arc_other="false"
       slice_arc="false"
       gen_isometric_frame="true"
       draw_axes="true"
       gen_perspective_frame="false"
       draw_perspective_axes="false"
       rot_axes="0"
       draw_ori_path="true" /><inkscape:path-effect
       effect="pts2ellipse"
       id="path-effect6"
       is_visible="false"
       lpeversion="1"
       method="auto"
       gen_arc="false"
       arc_other="false"
       slice_arc="false"
       gen_isometric_frame="false"
       draw_axes="false"
       gen_perspective_frame="false"
       draw_perspective_axes="false"
       rot_axes="0"
       draw_ori_path="false" /><inkscape:path-effect
       effect="pts2ellipse"
       id="path-effect7-0"
       is_visible="true"
       lpeversion="1"
       method="auto"
       gen_arc="true"
       arc_other="false"
       slice_arc="false"
       gen_isometric_frame="true"
       draw_axes="true"
       gen_perspective_frame="false"
       draw_perspective_axes="false"
       rot_axes="0"
       draw_ori_path="true" /><inkscape:path-effect
       effect="fillet_chamfer"
       id="path-effect9-6"
       is_visible="true"
       lpeversion="1"
       nodesatellites_param="F,0,0,1,0,0.86275931,0,1 @ F,0,0,1,0,1.2689559,0,1 @ F,0,0,1,0,0.90981663,0,1 @ F,0,0,1,0,1.1092381,0,1 | F,0,0,1,0,0,0,1"
       radius="0"
       unit="px"
       method="auto"
       mode="F"
       chamfer_steps="1"
       flexible="false"
       use_knot_distance="true"
       apply_no_radius="true"
       apply_with_radius="true"
       only_selected="false"
       hide_knots="false" /><radialGradient
       inkscape:collect="always"
       xlink:href="#linearGradient8"
       id="radialGradient10"
       cx="102.48171"
       cy="101.30376"
       fx="102.48171"
       fy="101.30376"
       r="108.37146"
       gradientTransform="matrix(1,0,0,0.98369569,0,1.651688)"
       gradientUnits="userSpaceOnUse" /></defs><rect
     style="fill:url(#radialGradient10);stroke-width:0.75"
     id="rect1"
     width="216.74292"
     height="213.20908"
     x="-5.8897538"
     y="-5.3007784"
     inkscape:label="Backgound" /><path
     style="display:inline;fill:#0563bb;stroke-width:1.46914"
     d="m 117.53956,368.34854 c -0.91522,0.0409 -1.28503,-0.82028 -1.19581,-1.13745 -0.53374,-61.01484 -38.008343,-38.50309 -32.618939,0 -0.01055,0.64728 -0.399105,1.04205 -1.088943,1.16058 l -24.988195,-0.007 c -1.926893,-3.55008 6.602044,-11.4663 18.192296,-6.6732 h 1.143605 c -3.148583,-43.46579 43.560556,-56.53377 46.489056,-0.0458 l 0.89378,-0.022 c 0.92545,-2.09896 18.48953,-3.453 18.25603,6.73561 z"
     id="path3"
     sodipodi:nodetypes="ccccccccccc"
     inkscape:label="Legs" /><path
     style="display:inline;fill:#0563bb;fill-opacity:1;stroke-width:1.38123"
     d="m 87.612146,139.73742 h 24.775704 l -6.03206,228.15027 -12.6954,-5.0879 z"
     id="path16"
     inkscape:label="Background_Lancy" /><path
     style="display:inline;fill:#0563bb;stroke-width:1.38123"
     d="m 62.915052,223.60542 c -3.429118,1.63733 -5.375731,4.23657 -6.00342,7.59089 -2.011416,12.39961 11.284531,14.0582 12.387938,1.46326 l 0.650753,-0.50455 c 0.997346,3.51914 4.907198,3.33066 3.355547,-1.58189 -0.800372,-2.27412 -1.531986,-4.41997 -4.60139,-5.89327 1.246882,-46.82458 54.20892,-63.99142 62.65234,-0.33846 -3.14264,2.28236 -3.82207,4.75719 -5.03333,7.19046 -0.83542,3.43305 2.75751,4.64801 3.51134,0.97071 l 0.94674,-0.1558 c 0.46529,13.38142 16.15268,11.61452 11.72796,-2.95803 -1.07814,-3.59111 -3.20901,-4.7082 -5.38897,-5.83129 -8.48138,-68.60099 -72.19183,-54.76136 -74.205508,0.0481 z"
     id="path2"
     sodipodi:nodetypes="ccccccccccccc"
     inkscape:label="Arms" /><g
     id="g2"
     style="display:inline"
     inkscape:label="Lance"
     transform="matrix(1.8416329,0,0,1.8416329,-84.16329,0.00172712)"><path
       id="path1"
       style="display:inline;fill:#000000;fill-opacity:1;fill-rule:evenodd;stroke:none;stroke-width:0.362186"
       d="m 93.275223,75.876899 0.330662,12.066955 12.670755,5.074277 0.44782,-17.142737 z m 12.902477,20.892663 -12.467057,-4.989403 0.261861,9.880301 11.945956,4.77259 z m -0.36204,13.418338 -11.735306,-4.69749 0.257864,9.61981 11.235182,4.50019 z m -0.34449,13.1898 -11.028039,-4.40481 0.261367,9.61639 10.520262,4.19801 z m -0.34449,13.18517 -10.317853,-4.13142 0.27066,9.87443 9.790293,3.91387 z m -0.3597,13.42368 -9.582583,-3.84192 0.262476,9.80909 9.073217,3.6112 z m -0.35426,13.34565 -8.860925,-3.54803 0.247826,9.80223 8.362089,3.3344 z m -0.34423,13.35175 -8.137298,-3.25831 0.258931,9.85978 7.625617,3.05492 z m -0.36327,13.41955 -7.410758,-2.96711 0.270639,9.86613 6.887369,2.75785 z m -0.36385,13.41953 -6.683066,-2.6759 0.263151,9.60078 6.174085,2.47202 z m -0.35663,13.16006 -5.9698,-2.39057 0.270639,9.86614 5.446411,2.1813 z m -0.36327,13.41954 -5.243271,-2.09937 0.27065,9.86614 4.719871,1.89012 z m -0.36384,13.42003 -4.515579,-1.80816 0.27064,9.86564 3.992189,1.59891 z m -0.36327,13.41954 -3.78906,-1.51745 0.241798,8.8145 3.356252,-0.005 z M 72.906253,48.71796 l 54.187507,0.05575 -0.008,1.92034 c -11.0368,5.534006 -17.29019,10.947085 -19.23209,18.780706 L 92.219202,69.366424 C 89.353049,60.131171 80.875933,55.223306 72.9214,50.338108 72.9249,50.319898 72.9199,49.779832 72.90624,48.71796 Z m 23.482369,-32.387294 7.271738,0.0082 -0.0437,26.034619 -7.273291,0.0055 c -0.01208,-0.06998 0.004,-8.752763 0.0453,-26.048356 z M 95.445968,-0.00205211 104.33875,8.7815205e-4 108.63913,10.516499 91.36055,10.42085 95.445968,-0.00204046 Z"
       sodipodi:nodetypes="ccccccccccccccccccccccccccccccccccccccccccccccccccccccccccccccccccccccccccccsccccccccccccc"
       sodipodi:insensitive="true" /><path
       id="shape5-2-6-3-2"
       style="display:inline;fill:#0563bb;fill-opacity:1;fill-rule:evenodd;stroke:none;stroke-width:0.167001"
       d="m 95.984009,34.984752 -0.13505,-2.443039 8.167041,-1.040409 0.13504,2.443039 z m 0,-4.17249 -0.13505,-2.443045 8.167041,-1.040407 0.13504,2.443042 z m -2e-5,-4.128364 -0.13503,-2.443039 8.167041,-1.040409 0.13504,2.443039 z m 0,-4.183822 -0.13503,-2.443039 8.167041,-1.040409 0.13504,2.443039 z m 2e-5,16.800352 -0.13505,-2.443039 8.167041,-1.04041 0.13504,2.443042 z" /></g><path
     id="path5-6"
     style="display:inline;fill:#d9edfd;fill-opacity:1;stroke-width:1.30569"
     inkscape:label="Eye_background"
     d="m 91.283276,97.404452 c -0.829531,-1.97e-4 -2.17379,0.08761 -2.963319,0.339176 -6.018187,1.917517 -8.98616,9.658012 -2.050357,14.872712 0.974436,0.73264 2.842373,1.19381 4.062458,1.19095 6.342639,-0.0151 12.931072,0.002 19.371232,0.005 0.87477,3.7e-4 2.23931,-0.28012 2.99394,-0.7217 6.2175,-3.6383 7.10585,-10.85524 0.28816,-14.819158 -0.92142,-0.535729 -2.593,-0.861713 -3.65953,-0.861967 z" /><path
     style="display:inline;fill:#0563bb;stroke-width:1.38123"
     d="m 93.288562,117.7908 -1.3728,1.61007 c 4.86063,4.57387 10.041938,6.60264 16.168478,-0.33896 l -1.44907,-1.42364 c -6.53073,6.90781 -12.061705,1.11206 -13.346608,0.15252 z"
     id="path4"
     sodipodi:nodetypes="cccccc"
     inkscape:label="Mouth" /><g
     id="g18"
     inkscape:label="Eye_ball"
     transform="matrix(1.8416329,0,0,1.8416329,-83.897116,0.00172712)"><circle
       style="display:inline;fill:#0563bb;fill-opacity:1;stroke-width:0.689103"
       id="path15"
       cx="99.855469"
       cy="57.292969"
       r="2.5195312" /><circle
       style="display:inline;fill:#ffffff;fill-opacity:1;stroke-width:0.767857"
       id="path14"
       cx="101.00996"
       cy="56.243969"
       r="1.0078125" /></g><path
     id="path5"
     style="display:inline;fill:#0563bb;stroke-width:0.75"
     d="m 93.149177,52.788989 c -3.456877,1.101431 -5.162358,5.547919 -1.178396,8.543273 0.559721,0.420828 1.633543,0.685322 2.334366,0.683673 3.643247,-0.0086 7.426573,0.0012 11.125843,0.0027 0.50247,2.07e-4 1.28597,-0.160184 1.71942,-0.413831 3.57138,-2.089862 4.08206,-6.236054 0.16595,-8.512951 -0.52927,-0.307725 -1.48879,-0.494528 -2.10141,-0.494673 l -10.363421,-0.0025 c -0.476489,-1.13e-4 -1.248843,0.04979 -1.702352,0.194287 z m 12.802993,1.407547 c 2.16051,0.555331 3.98543,4.324498 0.42046,6.064397 -0.34812,0.169901 -0.9611,0.270564 -1.34867,0.270019 l -10.532713,-0.01481 c -0.30498,-4.28e-4 -0.794545,-0.05588 -1.078797,-0.165829 -3.137629,-1.213609 -2.385742,-5.465887 0.209632,-6.184398 0.278927,-0.07722 0.750773,-0.09099 1.040597,-0.08922 l 10.731971,0.06524 c 0.15539,9.44e-4 0.40712,0.01595 0.55752,0.05461 z"
     sodipodi:nodetypes="cccccccccc"
     inkscape:path-effect="#path-effect7;#path-effect9"
     inkscape:original-d="m 93.98877,52.594497 c -4.291577,0.63689 -6.64705,6.260671 -0.952573,9.425228 4.324692,-0.01583 8.888273,-9.12e-4 13.304593,-9.12e-4 4.59615,-2.041347 5.28111,-7.165984 -0.0166,-9.421387 z m 11.68724,1.549144 c 2.39373,0.300289 4.64112,4.743884 0.0497,6.388298 L 93.939032,60.515369 C 89.975587,59.537275 90.9897,54.345311 94.137907,54.073504 Z"
     inkscape:label="Eye"
     transform="matrix(1.8416329,0,0,1.8416329,-83.900968,0.00172712)" /></svg>
