<?xml version="1.0" encoding="UTF-8" standalone="no"?>
<svg
   width="200pt"
   height="200pt"
   viewBox="0 0 200 200"
   version="1.1"
   id="svg1"
   sodipodi:docname="favicon.svg"
   inkscape:version="1.4.3 (0d15f75042, 2025-12-25)"
   xmlns:inkscape="http://www.inkscape.org/namespaces/inkscape"
   xmlns:sodipodi="http://sodipodi.sourceforge.net/DTD/sodipodi-0.dtd"
   xmlns="http://www.w3.org/2000/svg"
   xmlns:svg="http://www.w3.org/2000/svg">
  <sodipodi:namedview
     id="namedview1"
     pagecolor="#ffffff"
     bordercolor="#000000"
     borderopacity="0.25"
     inkscape:showpageshadow="2"
     inkscape:pageopacity="0.0"
     inkscape:pagecheckerboard="0"
     inkscape:deskcolor="#d1d1d1"
     inkscape:document-units="pt"
     inkscape:zoom="1.2733979"
     inkscape:cx="-23.559015"
     inkscape:cy="132.71578"
     inkscape:window-width="1920"
     inkscape:window-height="1011"
     inkscape:window-x="0"
     inkscape:window-y="0"
     inkscape:window-maximized="1"
     inkscape:current-layer="svg1" />
  <defs
     id="defs1" />
  <path
     id="path1"
     style="display:inline;fill:#000000;fill-opacity:1;fill-rule:evenodd;stroke:none;stroke-width:0.362186"
     d="m 93.275223,75.876899 0.330662,12.066955 12.670755,5.074277 0.44782,-17.104651 z m 12.958137,20.904382 -12.467053,-4.992333 0.27065,9.865652 11.943653,4.78259 z m -0.36384,13.419049 -11.739361,-4.70113 0.263723,9.62274 11.229238,4.49676 z m -0.35692,13.18151 -11.025524,-4.41481 0.264297,9.62225 10.514817,4.21044 z m -0.35692,13.18103 -10.311697,-4.12849 0.27066,9.86564 9.788287,3.91973 z m -0.36384,13.41954 -9.584005,-3.83778 0.268335,9.79444 9.06464,3.62999 z m -0.36154,13.34979 -8.860927,-3.54803 0.268334,9.79637 8.341583,3.34026 z m -0.36181,13.35175 -8.137298,-3.25831 0.27065,9.86564 7.613898,3.04906 z m -0.36327,13.41955 -7.410758,-2.96711 0.270639,9.86613 6.887369,2.75785 z m -0.36385,13.41953 -6.683066,-2.6759 0.263151,9.60078 6.174085,2.47202 z m -0.35663,13.16006 -5.9698,-2.39057 0.270639,9.86614 5.446411,2.1813 z m -0.36327,13.41954 -5.243271,-2.09937 0.27065,9.86614 4.719871,1.89012 z m -0.36384,13.42003 -4.515579,-1.80816 0.27064,9.86564 3.992189,1.59891 z m -0.36327,13.41954 -3.78906,-1.51745 0.241798,8.8145 3.356252,-0.005 z M 72.906253,48.71796 l 54.187507,0.05575 -0.008,1.92034 c -11.0368,5.534006 -17.29019,10.947085 -19.23209,18.780706 L 92.219202,69.366424 C 89.353049,60.131171 80.875933,55.223306 72.9214,50.338108 72.9249,50.319898 72.9199,49.779832 72.90624,48.71796 Z m 23.482369,-32.387294 7.271738,0.0082 -0.0437,26.034619 -7.273291,0.0055 c -0.01208,-0.06998 0.004,-8.752763 0.0453,-26.048356 z M 95.445968,-0.00205211 104.33875,8.7815205e-4 108.63913,10.516499 91.36055,10.42085 c 0,0 1.361806,-3.4742967 4.085418,-10.42289046 z" />
  <path
     id="shape5-2-6-3-2"
     style="display:inline;fill:#0563bb;fill-opacity:1;fill-rule:evenodd;stroke:none;stroke-width:0.167001"
     d="m 95.984009,34.984752 -0.13505,-2.443039 8.167041,-1.040409 0.13504,2.443039 z m 0,-4.17249 -0.13505,-2.443045 8.167041,-1.040407 0.13504,2.443042 z m -2e-5,-4.128364 -0.13503,-2.443039 8.167041,-1.040409 0.13504,2.443039 z m 0,-4.183822 -0.13503,-2.443039 8.167041,-1.040409 0.13504,2.443039 z m 2e-5,16.800352 -0.13505,-2.443039 8.167041,-1.04041 0.13504,2.443042 z" />
</svg>
