<?xml version="1.0" encoding="UTF-8" standalone="no"?>
<svg
   width="200pt"
   height="200pt"
   viewBox="0 0 200 200"
   version="1.1"
   id="svg1"
   sodipodi:docname="lancy_for_background.svg"
   inkscape:version="1.4.3 (0d15f75042, 2025-12-25)"
   xml:space="preserve"
   xmlns:inkscape="http://www.inkscape.org/namespaces/inkscape"
   xmlns:sodipodi="http://sodipodi.sourceforge.net/DTD/sodipodi-0.dtd"
   xmlns="http://www.w3.org/2000/svg"
   xmlns:svg="http://www.w3.org/2000/svg"><sodipodi:namedview
     id="namedview1"
     pagecolor="#ffffff"
     bordercolor="#000000"
     borderopacity="0.25"
     inkscape:showpageshadow="2"
     inkscape:pageopacity="0.0"
     inkscape:pagecheckerboard="0"
     inkscape:deskcolor="#d1d1d1"
     inkscape:document-units="pt"
     inkscape:zoom="1.2733979"
     inkscape:cx="-32.98262"
     inkscape:cy="83.241851"
     inkscape:window-width="1920"
     inkscape:window-height="1011"
     inkscape:window-x="0"
     inkscape:window-y="0"
     inkscape:window-maximized="1"
     inkscape:current-layer="svg1" /><defs
     id="defs1"><inkscape:path-effect
       effect="fillet_chamfer"
       id="path-effect9"
       is_visible="true"
       lpeversion="1"
       nodesatellites_param="F,0,0,1,0,0.86275931,0,1 @ F,0,0,1,0,1.2689559,0,1 @ F,0,0,1,0,0.90981663,0,1 @ F,0,0,1,0,1.1092381,0,1 | F,0,0,1,0,0.28136459,0,1 @ F,0,0,1,0,0.70175251,0,1 @ F,0,0,1,0,0.55221514,0,1 @ F,0,0,1,0,0.52478145,0,1"
       radius="0"
       unit="px"
       method="auto"
       mode="F"
       chamfer_steps="1"
       flexible="false"
       use_knot_distance="true"
       apply_no_radius="true"
       apply_with_radius="true"
       only_selected="false"
       hide_knots="false" /><inkscape:path-effect
       effect="fillet_chamfer"
       id="path-effect8"
       is_visible="true"
       lpeversion="1"
       nodesatellites_param="F,0,0,1,0,0,0,1 @ F,0,0,1,0,0,0,1 @ F,0,0,1,0,0,0,1 @ F,0,0,1,0,0,0,1 | F,0,0,1,0,0,0,1 @ F,0,0,1,0,0,0,1 @ F,0,0,1,0,0,0,1 @ F,0,0,1,0,0,0,1"
       radius="0"
       unit="px"
       method="auto"
       mode="F"
       chamfer_steps="1"
       flexible="false"
       use_knot_distance="true"
       apply_no_radius="true"
       apply_with_radius="true"
       only_selected="false"
       hide_knots="false" /><inkscape:path-effect
       effect="pts2ellipse"
       id="path-effect7"
       is_visible="true"
       lpeversion="1"
       method="auto"
       gen_arc="true"
       arc_other="false"
       slice_arc="false"
       gen_isometric_frame="true"
       draw_axes="true"
       gen_perspective_frame="false"
       draw_perspective_axes="false"
       rot_axes="0"
       draw_ori_path="true" /><inkscape:path-effect
       effect="pts2ellipse"
       id="path-effect6"
       is_visible="false"
       lpeversion="1"
       method="auto"
       gen_arc="false"
       arc_other="false"
       slice_arc="false"
       gen_isometric_frame="false"
       draw_axes="false"
       gen_perspective_frame="false"
       draw_perspective_axes="false"
       rot_axes="0"
       draw_ori_path="false" /><inkscape:path-effect
       effect="pts2ellipse"
       id="path-effect7-0"
       is_visible="true"
       lpeversion="1"
       method="auto"
       gen_arc="true"
       arc_other="false"
       slice_arc="false"
       gen_isometric_frame="true"
       draw_axes="true"
       gen_perspective_frame="false"
       draw_perspective_axes="false"
       rot_axes="0"
       draw_ori_path="true" /><inkscape:path-effect
       effect="fillet_chamfer"
       id="path-effect9-6"
       is_visible="true"
       lpeversion="1"
       nodesatellites_param="F,0,0,1,0,0.86275931,0,1 @ F,0,0,1,0,1.2689559,0,1 @ F,0,0,1,0,0.90981663,0,1 @ F,0,0,1,0,1.1092381,0,1 | F,0,0,1,0,0,0,1"
       radius="0"
       unit="px"
       method="auto"
       mode="F"
       chamfer_steps="1"
       flexible="false"
       use_knot_distance="true"
       apply_no_radius="true"
       apply_with_radius="true"
       only_selected="false"
       hide_knots="false" /></defs><path
     style="display:inline;fill:#0563bb;stroke-width:0.797736"
     d="m 109.52392,200.01099 c -0.49696,0.0222 -0.69777,-0.44541 -0.64932,-0.61763 -0.28982,-33.13084 -20.638394,-20.90704 -17.711967,0 -0.0057,0.35147 -0.216713,0.56583 -0.591292,0.63019 l -13.5685,-0.004 c -1.046296,-1.92768 3.584886,-6.22616 9.878351,-3.62352 h 0.620973 c -1.709669,-23.60177 23.653225,-30.69764 25.243385,-0.0249 l 0.48532,-0.0119 c 0.50252,-1.13973 10.03975,-1.87497 9.91296,3.65741 z"
     id="path3"
     sodipodi:nodetypes="ccccccccccc"
     inkscape:label="Legs"
     sodipodi:insensitive="true" /><path
     style="display:inline;fill:#0563bb;fill-opacity:1;stroke-width:0.75"
     d="m 93.27344,75.875978 h 13.45312 l -3.27539,123.884772 -6.893555,-2.76271 z"
     id="path16"
     inkscape:label="Background_Lancy"
     sodipodi:insensitive="true" /><path
     style="display:inline;fill:#0563bb;stroke-width:0.75"
     d="m 79.863007,121.416 c -1.861999,0.88906 -2.919002,2.30044 -3.259835,4.12182 -1.092192,6.73295 6.127459,7.63356 6.726605,0.79455 l 0.353357,-0.27397 c 0.541555,1.91088 2.664591,1.80854 1.82205,-0.85896 -0.434599,-1.23484 -0.831863,-2.40003 -2.498538,-3.20002 0.677052,-25.425586 29.435244,-34.747115 34.019994,-0.18379 -1.70644,1.23932 -2.07537,2.58314 -2.73308,3.9044 -0.45363,1.86413 1.49732,2.52385 1.90665,0.52709 l 0.51407,-0.0846 c 0.25265,7.26606 8.77085,6.30664 6.36824,-1.6062 -0.58543,-1.94996 -1.74248,-2.55654 -2.92619,-3.16637 -4.60536,-37.25009 -39.199903,-29.735219 -40.293323,0.0261 z"
     id="path2"
     sodipodi:nodetypes="ccccccccccccc"
     inkscape:label="Arms"
     sodipodi:insensitive="true" /><g
     id="g2"
     style="display:inline"
     inkscape:label="Lance"
     sodipodi:insensitive="true"><path
       id="path1"
       style="display:inline;fill:#000000;fill-opacity:1;fill-rule:evenodd;stroke:none;stroke-width:0.362186"
       d="m 93.275223,75.876899 0.330662,12.066955 12.670755,5.074277 0.44782,-17.142737 z m 12.902477,20.892663 -12.467057,-4.989403 0.261861,9.880301 11.945956,4.77259 z m -0.36204,13.418338 -11.735306,-4.69749 0.257864,9.61981 11.235182,4.50019 z m -0.34449,13.1898 -11.028039,-4.40481 0.261367,9.61639 10.520262,4.19801 z m -0.34449,13.18517 -10.317853,-4.13142 0.27066,9.87443 9.790293,3.91387 z m -0.3597,13.42368 -9.582583,-3.84192 0.262476,9.80909 9.073217,3.6112 z m -0.35426,13.34565 -8.860925,-3.54803 0.247826,9.80223 8.362089,3.3344 z m -0.34423,13.35175 -8.137298,-3.25831 0.258931,9.85978 7.625617,3.05492 z m -0.36327,13.41955 -7.410758,-2.96711 0.270639,9.86613 6.887369,2.75785 z M 72.906253,48.71796 l 54.187507,0.05575 -0.008,1.92034 c -11.0368,5.534006 -17.29019,10.947085 -19.23209,18.780706 L 92.219202,69.366424 C 89.353049,60.131171 80.875933,55.223306 72.9214,50.338108 72.9249,50.319898 72.9199,49.779832 72.90624,48.71796 Z m 23.482369,-32.387294 7.271738,0.0082 -0.0437,26.034619 -7.273291,0.0055 c -0.01208,-0.06998 0.004,-8.752763 0.0453,-26.048356 z M 95.445968,-0.00205211 104.33875,8.7815205e-4 108.63913,10.516499 91.36055,10.42085 95.445968,-0.00204046 Z"
       sodipodi:nodetypes="cccccccccccccccccccccccccccccccccccccccccccccccccccsccccccccccccc"
       sodipodi:insensitive="true" /><path
       id="shape5-2-6-3-2"
       style="display:inline;fill:#0563bb;fill-opacity:1;fill-rule:evenodd;stroke:none;stroke-width:0.167001"
       d="m 95.984009,34.984752 -0.13505,-2.443039 8.167041,-1.040409 0.13504,2.443039 z m 0,-4.17249 -0.13505,-2.443045 8.167041,-1.040407 0.13504,2.443042 z m -2e-5,-4.128364 -0.13503,-2.443039 8.167041,-1.040409 0.13504,2.443039 z m 0,-4.183822 -0.13503,-2.443039 8.167041,-1.040409 0.13504,2.443039 z m 2e-5,16.800352 -0.13505,-2.443039 8.167041,-1.04041 0.13504,2.443042 z"
       sodipodi:insensitive="true" /></g><path
     id="path5-6"
     style="display:inline;fill:#d9edfd;fill-opacity:1;stroke-width:0.70899"
     inkscape:label="Eye_background"
     d="m 95.26685,52.889328 c -0.450433,-1.07e-4 -1.18036,0.04757 -1.609072,0.184171 -3.267853,1.041205 -4.879452,5.244266 -1.113336,8.075832 0.529115,0.397817 1.543398,0.648236 2.2059,0.646676 3.44403,-0.0082 7.021528,0.0014 10.518508,0.0027 0.475,1.96e-4 1.21594,-0.152106 1.6257,-0.391883 3.37608,-1.975586 3.85845,-5.894357 0.15647,-8.046752 -0.50033,-0.290899 -1.40799,-0.467907 -1.98711,-0.468045 z"
     sodipodi:insensitive="true" /><path
     style="display:inline;fill:#0563bb;stroke-width:0.75"
     d="m 96.223851,63.959044 -0.745425,0.87426 c 2.639304,2.483597 5.452734,3.585206 8.779424,-0.184057 l -0.78684,-0.773031 c -3.546159,3.750918 -6.549461,0.603845 -7.247159,0.08282 z"
     id="path4"
     sodipodi:nodetypes="cccccc"
     inkscape:label="Mouth"
     sodipodi:insensitive="true" /><g
     id="g18"
     inkscape:label="Eye_ball"
     transform="translate(-2.8554688)"
     sodipodi:insensitive="true"><circle
       style="display:inline;fill:#0563bb;fill-opacity:1;stroke-width:0.689103"
       id="path15"
       cx="100.40763"
       cy="56.961674"
       r="2.5195312"
       sodipodi:insensitive="true" /><circle
       style="display:inline;fill:#ffffff;fill-opacity:1;stroke-width:0.767857"
       id="path14"
       cx="99.206215"
       cy="56.041515"
       r="1.0078125"
       sodipodi:insensitive="true" /></g><path
     id="path5"
     style="display:inline;fill:#0563bb;stroke-width:0.75"
     d="m 93.149177,52.788989 c -3.456877,1.101431 -5.162358,5.547919 -1.178396,8.543273 0.559721,0.420828 1.633543,0.685322 2.334366,0.683673 3.643247,-0.0086 7.426573,0.0012 11.125843,0.0027 0.50247,2.07e-4 1.28597,-0.160184 1.71942,-0.413831 3.57138,-2.089862 4.08206,-6.236054 0.16595,-8.512951 -0.52927,-0.307725 -1.48879,-0.494528 -2.10141,-0.494673 l -10.363421,-0.0025 c -0.476489,-1.13e-4 -1.248843,0.04979 -1.702352,0.194287 z m 12.802993,1.407547 c 2.16051,0.555331 3.98543,4.324498 0.42046,6.064397 -0.34812,0.169901 -0.9611,0.270564 -1.34867,0.270019 l -10.532713,-0.01481 c -0.30498,-4.28e-4 -0.794545,-0.05588 -1.078797,-0.165829 -3.137629,-1.213609 -2.385742,-5.465887 0.209632,-6.184398 0.278927,-0.07722 0.750773,-0.09099 1.040597,-0.08922 l 10.731971,0.06524 c 0.15539,9.44e-4 0.40712,0.01595 0.55752,0.05461 z"
     sodipodi:nodetypes="cccccccccc"
     inkscape:path-effect="#path-effect7;#path-effect9"
     inkscape:original-d="m 93.98877,52.594497 c -4.291577,0.63689 -6.64705,6.260671 -0.952573,9.425228 4.324692,-0.01583 8.888273,-9.12e-4 13.304593,-9.12e-4 4.59615,-2.041347 5.28111,-7.165984 -0.0166,-9.421387 z m 11.68724,1.549144 c 2.39373,0.300289 4.64112,4.743884 0.0497,6.388298 L 93.939032,60.515369 C 89.975587,59.537275 90.9897,54.345311 94.137907,54.073504 Z"
     inkscape:label="Eye"
     sodipodi:insensitive="true" /></svg>
