<?xml version="1.0" encoding="UTF-8" standalone="no"?>
<svg
   width="1920"
   height="1080"
   viewBox="0 0 1440 809.99999"
   version="1.1"
   id="svg1"
   sodipodi:docname="lancy_blog.svg"
   inkscape:version="1.4.3 (0d15f75042, 2025-12-25)"
   xml:space="preserve"
   xmlns:inkscape="http://www.inkscape.org/namespaces/inkscape"
   xmlns:sodipodi="http://sodipodi.sourceforge.net/DTD/sodipodi-0.dtd"
   xmlns="http://www.w3.org/2000/svg"
   xmlns:svg="http://www.w3.org/2000/svg"><sodipodi:namedview
     id="namedview1"
     pagecolor="#ffffff"
     bordercolor="#000000"
     borderopacity="0.25"
     inkscape:showpageshadow="2"
     inkscape:pageopacity="0.0"
     inkscape:pagecheckerboard="0"
     inkscape:deskcolor="#d1d1d1"
     inkscape:document-units="pt"
     inkscape:zoom="0.22510708"
     inkscape:cx="957.3222"
     inkscape:cy="1092.8133"
     inkscape:window-width="1920"
     inkscape:window-height="1011"
     inkscape:window-x="0"
     inkscape:window-y="0"
     inkscape:window-maximized="1"
     inkscape:current-layer="svg1" /><defs
     id="defs1"><inkscape:path-effect
       effect="fillet_chamfer"
       id="path-effect9"
       is_visible="true"
       lpeversion="1"
       nodesatellites_param="F,0,0,1,0,0.86275931,0,1 @ F,0,0,1,0,1.2689559,0,1 @ F,0,0,1,0,0.90981663,0,1 @ F,0,0,1,0,1.1092381,0,1 | F,0,0,1,0,0.28136459,0,1 @ F,0,0,1,0,0.70175251,0,1 @ F,0,0,1,0,0.55221514,0,1 @ F,0,0,1,0,0.52478145,0,1"
       radius="0"
       unit="px"
       method="auto"
       mode="F"
       chamfer_steps="1"
       flexible="false"
       use_knot_distance="true"
       apply_no_radius="true"
       apply_with_radius="true"
       only_selected="false"
       hide_knots="false" /><inkscape:path-effect
       effect="fillet_chamfer"
       id="path-effect8"
       is_visible="true"
       lpeversion="1"
       nodesatellites_param="F,0,0,1,0,0,0,1 @ F,0,0,1,0,0,0,1 @ F,0,0,1,0,0,0,1 @ F,0,0,1,0,0,0,1 | F,0,0,1,0,0,0,1 @ F,0,0,1,0,0,0,1 @ F,0,0,1,0,0,0,1 @ F,0,0,1,0,0,0,1"
       radius="0"
       unit="px"
       method="auto"
       mode="F"
       chamfer_steps="1"
       flexible="false"
       use_knot_distance="true"
       apply_no_radius="true"
       apply_with_radius="true"
       only_selected="false"
       hide_knots="false" /><inkscape:path-effect
       effect="pts2ellipse"
       id="path-effect7"
       is_visible="true"
       lpeversion="1"
       method="auto"
       gen_arc="true"
       arc_other="false"
       slice_arc="false"
       gen_isometric_frame="true"
       draw_axes="true"
       gen_perspective_frame="false"
       draw_perspective_axes="false"
       rot_axes="0"
       draw_ori_path="true" /><inkscape:path-effect
       effect="pts2ellipse"
       id="path-effect6"
       is_visible="false"
       lpeversion="1"
       method="auto"
       gen_arc="false"
       arc_other="false"
       slice_arc="false"
       gen_isometric_frame="false"
       draw_axes="false"
       gen_perspective_frame="false"
       draw_perspective_axes="false"
       rot_axes="0"
       draw_ori_path="false" /><inkscape:path-effect
       effect="pts2ellipse"
       id="path-effect7-0"
       is_visible="true"
       lpeversion="1"
       method="auto"
       gen_arc="true"
       arc_other="false"
       slice_arc="false"
       gen_isometric_frame="true"
       draw_axes="true"
       gen_perspective_frame="false"
       draw_perspective_axes="false"
       rot_axes="0"
       draw_ori_path="true" /><inkscape:path-effect
       effect="fillet_chamfer"
       id="path-effect9-6"
       is_visible="true"
       lpeversion="1"
       nodesatellites_param="F,0,0,1,0,0.86275931,0,1 @ F,0,0,1,0,1.2689559,0,1 @ F,0,0,1,0,0.90981663,0,1 @ F,0,0,1,0,1.1092381,0,1 | F,0,0,1,0,0,0,1"
       radius="0"
       unit="px"
       method="auto"
       mode="F"
       chamfer_steps="1"
       flexible="false"
       use_knot_distance="true"
       apply_no_radius="true"
       apply_with_radius="true"
       only_selected="false"
       hide_knots="false" /><inkscape:path-effect
       effect="fillet_chamfer"
       id="path-effect9-5"
       is_visible="true"
       lpeversion="1"
       nodesatellites_param="F,0,0,1,0,0.86275931,0,1 @ F,0,0,1,0,1.2689559,0,1 @ F,0,0,1,0,0.90981663,0,1 @ F,0,0,1,0,1.1092381,0,1 | F,0,0,1,0,0.28136459,0,1 @ F,0,0,1,0,0.70175251,0,1 @ F,0,0,1,0,0.55221514,0,1 @ F,0,0,1,0,0.52478145,0,1"
       radius="0"
       unit="px"
       method="auto"
       mode="F"
       chamfer_steps="1"
       flexible="false"
       use_knot_distance="true"
       apply_no_radius="true"
       apply_with_radius="true"
       only_selected="false"
       hide_knots="false" /><inkscape:path-effect
       effect="fillet_chamfer"
       id="path-effect8-3"
       is_visible="true"
       lpeversion="1"
       nodesatellites_param="F,0,0,1,0,0,0,1 @ F,0,0,1,0,0,0,1 @ F,0,0,1,0,0,0,1 @ F,0,0,1,0,0,0,1 | F,0,0,1,0,0,0,1 @ F,0,0,1,0,0,0,1 @ F,0,0,1,0,0,0,1 @ F,0,0,1,0,0,0,1"
       radius="0"
       unit="px"
       method="auto"
       mode="F"
       chamfer_steps="1"
       flexible="false"
       use_knot_distance="true"
       apply_no_radius="true"
       apply_with_radius="true"
       only_selected="false"
       hide_knots="false" /><inkscape:path-effect
       effect="pts2ellipse"
       id="path-effect7-5"
       is_visible="true"
       lpeversion="1"
       method="auto"
       gen_arc="true"
       arc_other="false"
       slice_arc="false"
       gen_isometric_frame="true"
       draw_axes="true"
       gen_perspective_frame="false"
       draw_perspective_axes="false"
       rot_axes="0"
       draw_ori_path="true" /><inkscape:path-effect
       effect="pts2ellipse"
       id="path-effect6-6"
       is_visible="false"
       lpeversion="1"
       method="auto"
       gen_arc="false"
       arc_other="false"
       slice_arc="false"
       gen_isometric_frame="false"
       draw_axes="false"
       gen_perspective_frame="false"
       draw_perspective_axes="false"
       rot_axes="0"
       draw_ori_path="false" /><inkscape:path-effect
       effect="pts2ellipse"
       id="path-effect7-0-2"
       is_visible="true"
       lpeversion="1"
       method="auto"
       gen_arc="true"
       arc_other="false"
       slice_arc="false"
       gen_isometric_frame="true"
       draw_axes="true"
       gen_perspective_frame="false"
       draw_perspective_axes="false"
       rot_axes="0"
       draw_ori_path="true" /><inkscape:path-effect
       effect="fillet_chamfer"
       id="path-effect9-6-9"
       is_visible="true"
       lpeversion="1"
       nodesatellites_param="F,0,0,1,0,0.86275931,0,1 @ F,0,0,1,0,1.2689559,0,1 @ F,0,0,1,0,0.90981663,0,1 @ F,0,0,1,0,1.1092381,0,1 | F,0,0,1,0,0,0,1"
       radius="0"
       unit="px"
       method="auto"
       mode="F"
       chamfer_steps="1"
       flexible="false"
       use_knot_distance="true"
       apply_no_radius="true"
       apply_with_radius="true"
       only_selected="false"
       hide_knots="false" /></defs><g
     id="g1"
     transform="matrix(3.1153891,0,0,3.1153891,408.46109,103.08308)"><path
       style="display:inline;fill:#0563bb;stroke-width:0.933452"
       d="m 111.97248,218.158 c -0.5815,0.026 -0.81647,-0.52119 -0.75978,-0.72271 -0.33913,-38.76728 -24.149533,-24.46388 -20.725243,0 -0.0067,0.41126 -0.253582,0.66209 -0.691887,0.7374 l -15.87686,-0.005 c -1.224298,-2.25563 4.19477,-7.2854 11.55892,-4.23998 h 0.726616 c -2.000529,-27.61705 27.677264,-35.92011 29.537954,-0.0292 l 0.56789,-0.0139 c 0.588,-1.33364 11.74777,-2.19396 11.59941,4.27963 z"
       id="path3"
       sodipodi:nodetypes="ccccccccccc"
       inkscape:label="Legs" /><path
       style="display:inline;fill:#0563bb;fill-opacity:1;stroke-width:0.877595"
       d="M 92.957368,72.904337 H 108.69922 L 104.8666,217.86519 96.800268,214.63246 Z"
       id="path16"
       inkscape:label="Background_Lancy" /><path
       style="display:inline;fill:#0563bb;stroke-width:0.877595"
       d="m 77.265466,126.19192 c -2.178774,1.04031 -3.415601,2.6918 -3.814419,4.82305 -1.278003,7.8784 7.169902,8.93223 7.870978,0.92973 l 0.413472,-0.32058 c 0.633688,2.23597 3.117909,2.11621 2.132029,-1.00509 -0.508535,-1.44492 -0.973385,-2.80835 -2.923605,-3.74444 0.792236,-29.751145 34.442959,-40.658512 39.807699,-0.21505 -1.99675,1.45015 -2.42845,3.0226 -3.19805,4.56863 -0.53081,2.18128 1.75205,2.95324 2.23102,0.61677 l 0.60152,-0.099 c 0.29564,8.50221 10.263,7.37957 7.45165,-1.87945 -0.68502,-2.2817 -2.03892,-2.99147 -3.42401,-3.70505 -5.38886,-43.587317 -45.868845,-34.793967 -47.148284,0.0305 z"
       id="path2"
       sodipodi:nodetypes="ccccccccccccc"
       inkscape:label="Arms" /><g
       id="g2"
       style="display:inline"
       inkscape:label="Lance"
       transform="matrix(1.1701264,0,0,1.1701264,-16.184349,-15.880149)"><path
         id="path1"
         style="display:inline;fill:#000000;fill-opacity:1;fill-rule:evenodd;stroke:none;stroke-width:0.362186"
         d="m 93.275223,75.876899 0.330662,12.066955 12.670755,5.074277 0.44782,-17.142737 z m 12.902477,20.892663 -12.467057,-4.989403 0.261861,9.880301 11.945956,4.77259 z m -0.36204,13.418338 -11.735306,-4.69749 0.257864,9.61981 11.235182,4.50019 z m -0.34449,13.1898 -11.028039,-4.40481 0.261367,9.61639 10.520262,4.19801 z m -0.34449,13.18517 -10.317853,-4.13142 0.27066,9.87443 9.790293,3.91387 z m -0.3597,13.42368 -9.582583,-3.84192 0.262476,9.80909 9.073217,3.6112 z m -0.35426,13.34565 -8.860925,-3.54803 0.247826,9.80223 8.362089,3.3344 z m -0.34423,13.35175 -8.137298,-3.25831 0.258931,9.85978 7.625617,3.05492 z m -0.36327,13.41955 -7.410758,-2.96711 0.270639,9.86613 6.887369,2.75785 z M 72.906253,48.71796 l 54.187507,0.05575 -0.008,1.92034 c -11.0368,5.534006 -17.29019,10.947085 -19.23209,18.780706 L 92.219202,69.366424 C 89.353049,60.131171 80.875933,55.223306 72.9214,50.338108 72.9249,50.319898 72.9199,49.779832 72.90624,48.71796 Z m 23.482369,-32.387294 7.271738,0.0082 -0.0437,26.034619 -7.273291,0.0055 c -0.01208,-0.06998 0.004,-8.752763 0.0453,-26.048356 z M 95.445968,-0.00205211 104.33875,8.7815205e-4 108.63913,10.516499 91.36055,10.42085 95.445968,-0.00204046 Z"
         sodipodi:nodetypes="cccccccccccccccccccccccccccccccccccccccccccccccccccsccccccccccccc"
         sodipodi:insensitive="true" /><path
         id="shape5-2-6-3-2"
         style="display:inline;fill:#0563bb;fill-opacity:1;fill-rule:evenodd;stroke:none;stroke-width:0.167001"
         d="m 95.984009,34.984752 -0.13505,-2.443039 8.167041,-1.040409 0.13504,2.443039 z m 0,-4.17249 -0.13505,-2.443045 8.167041,-1.040407 0.13504,2.443042 z m -2e-5,-4.128364 -0.13503,-2.443039 8.167041,-1.040409 0.13504,2.443039 z m 0,-4.183822 -0.13503,-2.443039 8.167041,-1.040409 0.13504,2.443039 z m 2e-5,16.800352 -0.13505,-2.443039 8.167041,-1.04041 0.13504,2.443042 z"
         sodipodi:insensitive="true" /></g><path
       id="path5-6"
       style="display:inline;fill:#d9edfd;fill-opacity:1;stroke-width:0.829608"
       inkscape:label="Eye_background"
       d="m 95.28991,46.007051 c -0.527064,-1.25e-4 -1.381171,0.05566 -1.882818,0.215504 -3.823801,1.218341 -5.709576,6.136454 -1.302744,9.449744 0.619131,0.465496 1.805971,0.758518 2.581182,0.756692 4.029947,-0.0096 8.21607,0.0016 12.30799,0.0032 0.55581,2.29e-4 1.4228,-0.177983 1.90227,-0.458553 3.95044,-2.311685 4.51487,-6.897142 0.18309,-9.415717 -0.58545,-0.340388 -1.64753,-0.54751 -2.32517,-0.547671 z" /><path
       style="display:inline;fill:#0563bb;stroke-width:0.877595"
       d="m 96.409722,58.960018 -0.872242,1.022995 c 3.088319,2.906123 6.38038,4.195144 10.27303,-0.21537 l -0.92069,-0.904544 c -4.14946,4.389049 -7.663707,0.706575 -8.480098,0.09691 z"
       id="path4"
       sodipodi:nodetypes="cccccc"
       inkscape:label="Mouth" /><g
       id="g18"
       inkscape:label="Eye_ball"
       transform="translate(-0.40763092)"><circle
         style="display:inline;fill:#0563bb;fill-opacity:1;stroke-width:0.806338"
         id="path15"
         cx="101.23592"
         cy="50.772205"
         r="2.9481699" /><circle
         style="display:inline;fill:#ffffff;fill-opacity:1;stroke-width:0.89849"
         id="path14"
         cx="102.59531"
         cy="49.640202"
         r="1.179268" /></g><path
       id="path5"
       style="display:inline;fill:#0563bb;stroke-width:0.75"
       d="m 93.149177,52.788989 c -3.456877,1.101431 -5.162358,5.547919 -1.178396,8.543273 0.559721,0.420828 1.633543,0.685322 2.334366,0.683673 3.643247,-0.0086 7.426573,0.0012 11.125843,0.0027 0.50247,2.07e-4 1.28597,-0.160184 1.71942,-0.413831 3.57138,-2.089862 4.08206,-6.236054 0.16595,-8.512951 -0.52927,-0.307725 -1.48879,-0.494528 -2.10141,-0.494673 l -10.363421,-0.0025 c -0.476489,-1.13e-4 -1.248843,0.04979 -1.702352,0.194287 z m 12.802993,1.407547 c 2.16051,0.555331 3.98543,4.324498 0.42046,6.064397 -0.34812,0.169901 -0.9611,0.270564 -1.34867,0.270019 l -10.532713,-0.01481 c -0.30498,-4.28e-4 -0.794545,-0.05588 -1.078797,-0.165829 -3.137629,-1.213609 -2.385742,-5.465887 0.209632,-6.184398 0.278927,-0.07722 0.750773,-0.09099 1.040597,-0.08922 l 10.731971,0.06524 c 0.15539,9.44e-4 0.40712,0.01595 0.55752,0.05461 z"
       sodipodi:nodetypes="cccccccccc"
       inkscape:path-effect="#path-effect7-5;#path-effect9-5"
       inkscape:original-d="m 93.98877,52.594497 c -4.291577,0.63689 -6.64705,6.260671 -0.952573,9.425228 4.324692,-0.01583 8.888273,-9.12e-4 13.304593,-9.12e-4 4.59615,-2.041347 5.28111,-7.165984 -0.0166,-9.421387 z m 11.68724,1.549144 c 2.39373,0.300289 4.64112,4.743884 0.0497,6.388298 L 93.939032,60.515369 C 89.975587,59.537275 90.9897,54.345311 94.137907,54.073504 Z"
       inkscape:label="Eye"
       transform="matrix(1.1701264,0,0,1.1701264,-16.184349,-15.880149)" /></g></svg>
